<?xml version="1.0" encoding="utf-8"?>
<!-- Generator: Adobe Illustrator 25.2.0, SVG Export Plug-In . SVG Version: 6.00 Build 0)  -->
<svg version="1.1" id="Layer_1" xmlns="http://www.w3.org/2000/svg" xmlns:xlink="http://www.w3.org/1999/xlink" x="0px" y="0px"
	 viewBox="0 0 300 300" style="enable-background:new 0 0 300 300;" xml:space="preserve">
<style type="text/css">
	.st0{fill:#FFFFFF;}
	.st1{fill:#E0B22D;}
</style>
<g>
	<g>
		<path class="st0" d="M165.3,66.9c-0.4-4.3-1.3-8.4-3.6-12.2c-1-1.7-2.2-3.4-3.6-4.9c-1.3-1.3-1.9-1.9-3.3-3.9
			c-0.2-0.4-0.3-0.7-0.2-1c0.1-0.2,0.2-0.4,0.4-0.6c2.2-0.7,3.8-2.8,3.8-5.2c0-2.5-1.7-4.6-4-5.3c-1.8-0.8-4.9-1.4-9.9-2
			c-0.2,0-0.3,0-0.5-0.1c0.8-1,1.5-2.1,2.1-3.2c0.8-1.1,1.4-2.2,1.7-3.4c1.1-5.6-5.5-5.9-9.5-6.1c-5.1-0.3-10.2,0.4-14.1,4.4
			c-1.9,2-3.1,4.6-4.2,6.9c0,0.1-0.1,0.2-0.1,0.2c-0.6,0-1.2,0-1.8,0c-10,0-19.4,0.5-26.4,1.3c-5.2,0.6-8.3,1.3-10.1,2.1
			c-2.2,0.8-3.7,2.8-3.7,5.2c0,1.8,0.9,3.4,2.2,4.4c0.7,0.5,1.4,0.8,2.2,0.9c0,0.5-0.2,0.9-0.5,1.4c-1.4,2.1-2.1,2.7-3.4,4
			c-1.4,1.5-2.6,3.2-3.6,4.9c-1.9,3.3-3.1,6.9-3.6,10.6c0,0.3-0.1,0.5-0.1,0.8c0,0,0,0.1,0,0.1c0,0,0,0,0,0c0,0,0,0,0,0
			c-0.1,1.3-0.1,2.8-0.1,4.1v159.8c0,8.4,5.2,15.7,12.2,20.8c1.1,0.8,2.1,1.6,3.3,2.3c1.1,1,3.7,2.1,9.8,3c6.2,1,14.2,1.5,22.3,1.5
			s16-0.5,22.3-1.5c6.1-1,8.7-2,9.8-3c1-0.6,2-1.4,3-2.2c2-1.6,4-3.6,5.4-5.5c1.4-2,2.8-3.8,3.8-6c1.8-3.6,2.3-7.5,2.3-11.5v-154
			C165.6,71.7,165.6,69.3,165.3,66.9z M121.8,246c-7.3,0.2-14.7-0.2-22-1.2c-3.5-0.5-6.9-1-10.3-1.9c-2.8-0.7-5.6-1.4-8-2.9
			c0.1-0.2,0.9-1.6,1.1-1.5c1.2,0.6,2.5,1,3.8,1.3c3,0.8,6.1,1.3,9.1,1.7c6.8,0.9,13.7,1.4,20.5,1.5c7.1,0.1,14.2-0.2,21.3-0.9
			c3.3-0.3,6.6-0.8,9.9-1.5c1.4-0.3,2.9-0.6,4.3-1.1c0.8-0.3,1.9-0.6,2.6-1.2c0.2-0.2,1.5,0.7,1.5,1c0,0.8-2.8,1.9-3.3,2.1
			c-2.8,1.1-5.8,1.8-8.8,2.4C136.3,245.1,129.1,245.8,121.8,246z M154.6,69.8c-3.3,1-6.7,1.5-10.1,1.9c-7.7,1-15.4,1.3-23.1,1.4
			c-7.8,0.1-15.7-0.1-23.5-0.8C94.3,72,90.6,71.6,87,71c-2.9-0.5-5.9-1.1-8.6-2.6c0.1-0.2,0.9-1.7,1.1-1.6c1.3,0.6,2.7,0.9,4.2,1.2
			c3.3,0.7,6.7,1,10,1.2c7.3,0.6,14.7,0.8,22,0.8c7.7,0,15.5-0.1,23.2-0.6c3.6-0.2,7.2-0.5,10.8-1c1.5-0.2,3.1-0.5,4.6-0.8
			c0.7-0.2,2.3-0.4,2.8-1c0.1-0.2,0.1-0.2,0.2-0.1c0.4,0.4,1.6,1.1,1.1,1.6C157.4,69,156,69.4,154.6,69.8z M147.1,35.6
			c0.6,0.1,4.3,0.1,4,1.2c-0.1,0.3-0.4,0.4-0.6,0.5c-2.8,0.8-5.7,1.1-8.5,1.4c-0.8,0.1-1.5,0.2-2.3,0.2c0.6-1.4,1.4-2.7,2.2-3.9
			C143.7,35.1,145.4,35.3,147.1,35.6z M119.5,39.4c1.4-3.8,3.5-8,5.7-11.8c2.3-3.9,6.1-5.2,10.2-5.4c1.8-0.1,3.6,0.1,5.4,0.3
			c1.7,0.2,3.5,0.4,3.8,1.6c-0.1,0.6-0.2,1.1-0.3,1.6c-0.1,0.3-0.3,0.5-0.5,0.9c-3,4.3-6.5,8.2-9.7,12c-0.2,0.2-0.3,0.4-0.3,0.6
			c-0.3,0-0.7,0-1,0.1c0.3-2.1-2.4-3.6-4.6-3.7c-3.2,0-6.1,1.5-7.9,4.1c-0.3,0-0.7,0-1,0C119.4,39.7,119.5,39.6,119.5,39.4z
			 M81.7,39.1C81.7,39.1,81.7,39.1,81.7,39.1c-0.2-0.8,0.3-1.7,1.1-2.1c0.5-0.2,1-0.4,1.6-0.5c0.1,0,0.1,0,0.2,0
			c0.4-0.1,0.9-0.2,1.3-0.3c1.1-0.2,2.2-0.4,3.2-0.5c2.9-0.4,5.9-0.7,8.8-1c3.8-0.3,7.7-0.5,11.5-0.7c3-0.1,6.1-0.2,9.1-0.2
			c0,0,0.1,0,0.1,0c-0.6,1.2-1.2,2.5-1.7,3.7c-5.9,0-11.7,0.4-17.5,1.2c-0.3,0-0.5,0.1-0.7,0.2c-1.3-0.1-2.6-0.1-4-0.1
			c-2.6-0.1-5.3-0.4-7.9-0.9c-0.4-0.1-0.7-0.1-1.1-0.2c-0.4-0.1-0.6-0.1-1,0c-0.7,0.3-0.4,1.1,0.1,1.5c0.7,0.5,1.6,0.8,2.4,1.1
			c1.6,0.5,3.2,0.7,4.8,0.9c7.1,0.8,16.5,1.3,26.4,1.3c10,0,19.4-0.5,26.4-1.3c5.5-0.6,8.7-1.4,10.4-2.2c0,0.9-0.8,1.6-1.6,2
			c-3.1,1.3-16,2.8-35.2,2.8c-18.2,0-30.8-1.4-34.7-2.7C82.8,40.9,81.8,40.2,81.7,39.1z"/>
		<path class="st0" d="M132.4,34.1c3.1-0.3,6.2-1.6,7.9-4.6c0.5-0.9,0.9-2,0.7-3c-0.1-0.6-0.4-1.1-0.9-1.5c-1.8-1.4-5.7-1-7.5-0.6
			c-3.1,0.6-5.8,2.5-6.8,5.6c0,0,0,0.1,0,0.1C124.8,33.9,129.8,34.3,132.4,34.1z M129.2,29.3c0.6-0.9,1.4-1.5,2.4-1.9
			c1.8-0.7,4.2-0.9,5.7,0.1c0.2,0.2,0.4,0.4,0.5,0.6c0.4,1-1.3,2.4-2.3,2.8c0,0-0.1,0-0.1,0c-2.2-0.2-4.3-0.3-6.5-0.3
			C128.7,30.2,128.8,29.8,129.2,29.3z"/>
	</g>
	<path class="st1" d="M168.3,209.7v18.4c1,20-15.3,28.1-15.3,28.1c-15.4,6.6-44.1,4.4-59.5,2.5c11.5,11.1,34.8,18.7,61.7,18.7
		c38.3,0,69.3-15.3,69.3-34.2C224.5,226.6,200.3,212.7,168.3,209.7z"/>
</g>
</svg>
