<?xml version="1.0" encoding="utf-8"?>
<!-- Generator: Adobe Illustrator 25.2.0, SVG Export Plug-In . SVG Version: 6.00 Build 0)  -->
<svg version="1.1" id="Layer_1" xmlns="http://www.w3.org/2000/svg" xmlns:xlink="http://www.w3.org/1999/xlink" x="0px" y="0px"
	 viewBox="0 0 200 90.6" style="enable-background:new 0 0 200 90.6;" xml:space="preserve">
<style type="text/css">
	.st0{fill:#176A45;}
	.st1{fill:#DFB12D;}
</style>
<g>
	<g>
		<path class="st0" d="M21.8,33.8c0,2.2-0.6,3.9-1.7,4.9c-1.4,1.2-3.7,1.8-6.9,1.8c-3.1,0-5.3-0.7-6.7-2.2c-1.1-1.1-1.6-2.4-1.6-4
			v-7.8h6.7v7.8c0,0.4,0.1,0.6,0.4,0.9c0.3,0.2,0.6,0.3,1,0.3c0.5,0,0.8-0.1,1.1-0.3c0.2-0.2,0.4-0.5,0.4-0.9v-4
			c0-0.9-0.2-1.7-0.6-2.2c-1.1-1.2-2.4-2.5-3.7-3.8c-2.1-2.3-3.3-3.6-3.6-3.9c-1.1-1.5-1.7-2.8-1.7-4.1v-3.8c0-2.2,0.6-3.8,1.8-4.8
			C8.1,6.6,10.4,6,13.5,6c2.7,0,4.7,0.6,6,1.8c1.1,1,1.7,2.4,1.7,4.2v5.9h-6.7v-6.3c0-0.3-0.1-0.6-0.3-0.8c-0.2-0.2-0.5-0.3-0.8-0.3
			c-0.4,0-0.7,0.1-0.9,0.2c-0.2,0.2-0.3,0.4-0.3,0.8v3.2c0,1.1,0.5,2.2,1.5,3.2c1.4,1.4,2.6,2.7,3.8,3.9c1.6,1.6,2.6,2.7,3,3.4
			c0.9,1.3,1.4,2.7,1.4,4.2V33.8z"/>
		<path class="st0" d="M43.6,40.2h-7.3L35,31.1h-3.4l-1.3,9.1h-7.3l5.6-33.9H38L43.6,40.2z M34.3,26.4l-1.1-10.2l-1,10.2H34.3z"/>
		<path class="st0" d="M63.7,40.2H56l-5.1-18.1v18.1h-6.2V6.3h8.5l4.3,15.5V6.3h6.2V40.2z"/>
		<path class="st0" d="M72.8,40.2h-7.4V6.3h7.4V40.2z"/>
		<path class="st0" d="M89.7,10.6h-4.2v29.6h-7.4V10.6H74V6.3h15.8V10.6z"/>
		<path class="st0" d="M111.3,40.2H104l-1.3-9.1h-3.4L98,40.2h-7.3l5.6-33.9h9.5L111.3,40.2z M102.1,26.4L101,16.2l-1,10.2H102.1z"
			/>
		<path class="st0" d="M130.9,40.2h-7.4c-0.4-0.5-0.7-1.2-0.9-2.2c-0.2-1-0.2-2.3-0.2-4v-8.3c0-0.8-0.2-1.3-0.6-1.5
			c-0.4-0.2-1-0.3-1.7-0.3v16.3h-7.4V6.3h9.2c2.5,0,4.4,0.5,5.7,1.6s2.1,2.5,2.1,4.3v4.1c0,1.1-0.2,2-0.5,2.6c-0.6,1.1-2,2-4,2.7
			c1.9,0.5,3.2,1.2,3.9,2.3c0.4,0.7,0.7,1.6,0.7,2.8V34c0.1,1.2,0.1,2.1,0.2,2.7C130,38.7,130.4,39.8,130.9,40.2z M122.4,17.9v-5.5
			c0-0.8-0.2-1.3-0.6-1.5c-0.4-0.2-1-0.3-1.7-0.3v9.1c0.8,0,1.3,0,1.5-0.1C122.1,19.3,122.4,18.7,122.4,17.9z"/>
		<path class="st0" d="M152.2,6.3l-7.3,20.5v13.4h-7.4V26.7l-6.2-20.5h7.1l3.3,12l3.8-12H152.2z"/>
		<path class="st0" d="M25.1,75.7c0,2.2-0.8,4-2.3,5.5c-1.7,1.6-3.9,2.4-6.8,2.4H5v-40h11c2.9,0,5.1,0.8,6.8,2.4
			c1.6,1.4,2.3,3.3,2.3,5.5V75.7z M16.3,76.4V50.8c0-1-0.3-1.6-0.9-1.9c-0.3-0.2-0.9-0.2-1.7-0.2v29.9c0.9,0,1.5-0.1,1.7-0.2
			C16,78.1,16.3,77.4,16.3,76.4z"/>
		<path class="st0" d="M35.6,83.7h-8.8v-40h8.8V83.7z"/>
		<path class="st0" d="M58.2,76.2c0,2.6-0.7,4.6-2,5.8c-1.6,1.4-4.3,2.2-8.1,2.2c-3.6,0-6.2-0.9-7.9-2.6c-1.3-1.3-1.9-2.8-1.9-4.7
			v-9.1h7.9V77c0,0.4,0.2,0.8,0.5,1c0.3,0.2,0.7,0.4,1.2,0.4c0.6,0,1-0.1,1.2-0.3s0.4-0.6,0.4-1v-4.7c0-1.1-0.2-2-0.7-2.6
			c-1.3-1.4-2.8-2.9-4.3-4.5c-2.5-2.7-3.9-4.2-4.2-4.6c-1.3-1.7-2-3.3-2-4.8v-4.5c0-2.5,0.7-4.4,2.2-5.6c1.7-1.4,4.3-2.1,8-2.1
			c3.2,0,5.5,0.7,7.1,2.1c1.3,1.2,2,2.9,2,5v6.9h-7.9v-7.4c0-0.4-0.1-0.7-0.4-0.9c-0.3-0.2-0.6-0.3-1-0.3c-0.5,0-0.8,0.1-1.1,0.3
			c-0.2,0.2-0.4,0.5-0.4,0.9v3.7c0,1.3,0.6,2.6,1.7,3.8c1.6,1.6,3.1,3.2,4.5,4.6c1.8,1.9,3,3.2,3.5,4c1.1,1.6,1.7,3.2,1.7,4.9V76.2z
			"/>
		<path class="st0" d="M77.5,48.8h-4.9v34.9h-8.8V48.8h-4.9v-5.1h18.6V48.8z"/>
		<path class="st0" d="M100.9,83.7h-8.8c-0.5-0.6-0.8-1.4-1-2.5c-0.2-1.1-0.3-2.7-0.3-4.8v-9.8c0-1-0.2-1.6-0.7-1.8
			c-0.5-0.2-1.2-0.3-2.1-0.3v19.3h-8.8v-40h10.9c2.9,0,5.2,0.6,6.8,1.9c1.6,1.3,2.4,3,2.4,5.1v4.8c0,1.3-0.2,2.4-0.6,3.1
			c-0.8,1.3-2.3,2.4-4.8,3.2c2.2,0.6,3.8,1.5,4.6,2.7c0.5,0.8,0.8,1.9,0.8,3.3v8.6c0.1,1.4,0.2,2.5,0.2,3.2
			C99.8,81.8,100.3,83.2,100.9,83.7z M90.8,57.4v-6.5c0-1-0.2-1.6-0.7-1.8c-0.5-0.2-1.2-0.3-2.1-0.3v10.8c0.9,0,1.5-0.1,1.8-0.2
			C90.5,59,90.8,58.3,90.8,57.4z"/>
		<path class="st0" d="M110.8,83.7h-8.8v-40h8.8V83.7z"/>
		<path class="st0" d="M131.9,77.8c0,1.6-0.8,2.9-2.3,4.2c-1.7,1.4-4,2.1-6.8,2.1c-3,0-5.4-0.6-7.2-1.8c-2-1.3-3-3.1-3-5.4V51.3
			c0-2.5,0.7-4.4,2.2-5.6c1.7-1.4,4.3-2.1,8-2.1c3.2,0,5.5,0.7,7.1,2.1c1.3,1.2,2,2.9,2,5v7.2H124v-8c0-0.3-0.1-0.6-0.3-0.7
			c-0.2-0.2-0.5-0.2-1-0.2c-0.4,0-0.8,0.1-1,0.2c-0.2,0.2-0.3,0.4-0.3,0.7v27.8c0,0.3,0.1,0.5,0.4,0.7c0.3,0.2,0.6,0.3,0.9,0.3
			c0.4,0,0.8-0.1,1-0.3c0.2-0.2,0.3-0.4,0.3-0.7v-9.9h7.9V77.8z"/>
		<polygon class="st0" points="146.4,83.7 146.4,48.7 152,48.7 152,43.6 133.4,43.6 133.4,48.7 139,48.7 139,83.7 		"/>
	</g>
	<path class="st1" d="M181.7,68.4V6.2H159v9.9l0,0v0l5.1,0.5c4.1,0.4,4.5,1.2,4.5,7.6v44.3c0,8.7-0.9,10.5-8.7,11.1v4.2h30.4v-4.2
		C182.4,78.9,181.7,76.8,181.7,68.4z"/>
</g>
</svg>
