<?xml version="1.0" encoding="utf-8"?>
<!-- Generator: Adobe Illustrator 25.2.0, SVG Export Plug-In . SVG Version: 6.00 Build 0)  -->
<svg version="1.1" id="_x2014_ÎÓÈ_x5F_1" xmlns="http://www.w3.org/2000/svg" xmlns:xlink="http://www.w3.org/1999/xlink"
	 x="0px" y="0px" viewBox="0 0 460.8 650.4" style="enable-background:new 0 0 460.8 650.4;" xml:space="preserve">
<style type="text/css">
	.st0{fill:#E1B32A;}
	.st1{fill:#D8A628;}
</style>
<g>
	<g>
		<line class="st0" x1="357.8" y1="418.8" x2="357.8" y2="418.8"/>
	</g>
	<g>
		<g>
			<path class="st0" d="M374.7,502.5c-3.6,0.5-7.4,1-8.2,1c-3.8,0-6.4,0-9,1.3c-2.6,1.3-2.6,3.8-5.1,5.1c-2.6,1.3-5.1,1.3-7.7,1.3
				c-5.1,1.3-11.5,1.3-16.6,1.3c-5.1,1.3-10.2,2.6-15.4,2.6c-3.8,0-7.7,0-10.2,1.3h-5.1c-3.8,0-6.4,2.6-9,2.6h-12.8
				c-6.4,0-9,2.6-14.1,5.1c-2.6,0-3.8,1.3-6.4,1.3c-3.8,1.3-7.7,3.8-10.2,5.1c-2.6,1.3-5.1,1.3-6.4,2.6c-3.8,2.6-3.8,7.7-7.7,9
				c-5.1,5.1-12.8,5.1-17.9,7.7l-19.2,7.7c-5.1,3.8-11.5,3.8-17.9,6.4c-1.3,1.3-3.8,1.3-5.1,2.6c-3.8,1.3-6.4,3.8-9,6.4
				c-5.1,3.8-10.2,7.7-15.4,10.2l-15.4,3.8c-5.1,1.3-10.2,2.6-14.1,3.8c-11.5,2.9-26.9,1.8-37.3,6c-8.6,3.5-10.3,13.4-21,12.7
				c-1.8-12.7,2.6-26.3,14.8-33.2c13.1-7.5,30.7-2,44.2-9.5c14.9-8.2,25.9-5.9,41.7-9.3c11.8-2.5,19.9-14.4,31.7-16.9
				c8.6-15.6,28.9-14.6,44.5-15.3c-0.5-10.9,13.1-14.5,20.9-19.1c8.4-5,12.9-10.8,20.4-17.1c4.2-3.5,25.9-20.1,30.8-20
				c13.8,0.3,7.7,14.9,1.4,20.3c13.8-6,24.6-12.9,19.1-30c11.1-0.3,11.2-10,23.4-2.9c5.8,3.4,12.2,5.2,18,9.2
				c6.3,4.3,6.8,7.2,7.7,14.5c0.8,7.1,5.2,14.8,5,21.2C382.2,501.3,378.5,501.9,374.7,502.5z"/>
		</g>
		<g>
			<path class="st0" d="M438.2,177.2c-2,8.3-5.8,16.5-10,24.7c-8.8,17.3-16.3,33.4-19.6,53.9c-3.7,23.3-7.7,47.6-8.5,71.4
				c-0.5,15.2,4.3,28,4.3,43c0,17.4-2.2,30.7-13.5,43.5c-4,4.5-10.7,13.3-17.2,15c-4.3,1.2-11.6-0.8-14.2-4.7
				c-3.8-5.6,0.7-11.2,0.4-17.6c-8.9-1.8-18.4,15.6-26.9,20c-19.3,10-38-8.6-54.8-17.4c-4.3-2.3-14.6-2.7-18-5.3
				c-9.4-7.1-12.2-23-25.5-28.2c-16.9-6.6-10.9,9.7-23.3,14.5c-16.5,6.3-8-17.3-22.6-14.2l3.2-13.4c-3.4-6-8.5-9.4-10.2-16.2
				c0-3.4-1.7-6-2.6-9.4c0-1.7,0-3.4-0.9-5.1c-0.9-1.7-2.6-2.6-2.6-3.4v-6c0.9-3.4,3.4-5.1,3.4-8.5c0-7.7-5.1-10.2-11.1-10.2
				c-4.3,0-6.8,1.7-10.2,2.6c-3.4,1.7-6,1.7-7.7,4.3c-1.7,2.6-1.7,6-5.1,6c-3.4,0-6-2.6-8.5-4.3c-4.3-4.3-8.5-6.8-11.1-11.9
				c-1.7-3.4-4.3-6-4.3-10.2c-0.8-2.6-2.6-4.3-5.1-6c-1.7-1.7-4.3-2.6-6.8-2.6c-1.7,0-2.6,0-4.3,0.9c-1.7,0-2.6,0.9-3.4,1.7
				c-6.8,1.7-11.9-1.7-16.2-6c-3.4-2.6-6.8-3.4-9.4-6c-2.6-1.7-4.3-4.3-6.8-6c-5.1-3.4-10.2-8.5-13.7-13.6
				c-2.6-5.1,1.7-10.2,1.7-15.4v-6.8c0-4.3-1.7-6-5.1-8.5c-2.6-2.6-6.8-4.3-9.4-7.7c-1.7-2.6-2.6-6-5.1-8.5
				c-1.7-3.4-10.2-8.5-13.6-6l-8.1-0.7c0.1-9.5,1.2-19,2.5-27.9c2.3-14.7,17.7-18.8,21.9-31.9c3.5-11-7.4-28.3,7.5-34.7
				c4.8-2,12.6,0,17.9-1.6c5.3-1.6,10.2-5.7,15-8.9C92.4,85.9,98,74.8,110.6,87c7.3,7,8.6,26.3,21.6,23.5c2.2-8.6,1-14.7,10.4-16.5
				c9.7-1.8,19.5,9.6,25.6,16.3c4.2,4.7,4.2,1.5,6.4,8c1.2,3.4-1.2,8.1,0,11.5c4,11.9,13.4,10.6,25.4,10.1c0.3-7.3,3.4-19.9-6-20.5
				c3.2-17.4-17-21.7-14.3-34.1c1.2-5.8,19.9-17,25.7-19.3c12.6,27.1,15.6-2.4,28.4-6.5c7.9-2.5,18.7,1.9,26.5,2.6
				c6.1,0.5,13.1-1.4,19,0c4.4,1,5,4.3,9.2,5.2c2.7,0.6,7.4,0.4,10.2-0.1c2.9-0.5,8.9-5.3,10.2-5.2c8.6,1.1,9.9,10.4,11.6,19.3
				c2.3,11.6,9,42.6,27.9,39.4c1.8-6.8,3.5-13.7,4.5-20.7c0.5-3.4-0.9-13.3,1.5-15.9c5.4-5.9,15,4.2,19.3,7.7
				c8.1,6.5,16.9,10.4,23.5,18.8c11,14,30.2,21.7,38.1,37.6C440.3,158.1,440.5,167.7,438.2,177.2z"/>
		</g>
		<g>
			<path class="st0" d="M236,485.5c18.5-24.6-30-28-16.6-44.8c5.1-6.4,3.8-12.8,3.8-20.5c0-6.4,1.3-14.1,7.7-16.6
				c3.8-1.3,3.8,0,5.1,2.6c2.6,2.6,5.1,5.1,6.4,7.7c1.3,7.7-1.3,15.4,0,23c2.6,3.8,2.6,9,3.8,12.8c0,5.1,2.6,10.2,2.6,14.1
				c0,5.1,1.3,9-2.6,11.5c-2.6,2.6-6.4,3.8-6.4,7.7c0,2.6,1.3,5.1,1.3,7.7c0,6.4,0,9-7.7,9c-2.6,0-6.4-1.3-10.2-1.3
				c-5.1,0-6.4,3.8-9,7.7c-2.6,2.6-5.1,5.1-7.7,1.3c-1.3-1.3,0-7.7,0-10.2c0-3.8,0-5.1,3.8-6.4c2.6-1.3,7.7,0,11.5,0
				c2.6,1.3,6.4,2.6,9,1.3C233.4,490.6,234.7,488.1,236,485.5z"/>
		</g>
		<g>
			<path class="st0" d="M289.7,465c-6.4,0-10.2-2.6-12.8-9c-1.3-6.4,2.6-11.5,7.7-15.4c2.6-1.3,6.4-3.8,10.2-3.8
				c5.1,1.3,2.6,7.7,3.8,10.2c2.6,2.6,6.4,3.8,6.4,7.7c1.3,3.8-2.6,6.4-5.1,7.7L289.7,465z"/>
		</g>
	</g>
</g>
<g>
	<g>
		<line class="st1" x1="357.8" y1="418.8" x2="357.8" y2="418.8"/>
	</g>
	<g>
		<g>
			<path class="st1" d="M37.7,205.3c2.6,2.6,3.4,6,5.1,8.5c2.6,3.4,6.8,5.1,9.4,7.7c3.4,2.6,5.1,4.3,5.1,8.5v6.8
				c0,5.1-4.3,10.2-1.7,15.4c3.4,5.1,8.5,10.2,13.7,13.6c2.6,1.7,4.3,4.3,6.8,6c2.6,2.6,6,3.4,9.4,6c4.3,4.3,9.4,7.7,16.2,6
				c0.9-0.8,1.7-1.7,3.4-1.7c1.7-0.9,2.6-0.9,4.3-0.9c2.6,0,5.1,0.9,6.8,2.6c2.6,1.7,4.3,3.4,5.1,6c0,4.3,2.6,6.8,4.3,10.2
				c2.6,5.1,6.8,7.7,11.1,11.9c2.6,1.7,5.1,4.3,8.5,4.3c3.4,0,3.4-3.4,5.1-6c1.7-2.6,4.3-2.6,7.7-4.3c3.4-0.9,6-2.6,10.2-2.6
				c6,0,11.1,2.6,11.1,10.2c0,3.4-2.6,5.1-3.4,8.5v6c0,0.9,1.7,1.7,2.6,3.4c0.9,1.7,0.9,3.4,0.9,5.1c0.4,1.7,1.1,3.2,1.6,4.7
				L404.2,118c-2.5-2.3-4.9-4.7-6.9-7.3c-6.6-8.5-15.5-12.4-23.5-18.8c-4.3-3.5-13.9-13.6-19.3-7.7c-2.4,2.6-1,12.4-1.5,15.9
				c-1,7-2.7,13.9-4.5,20.7c-18.9,3.2-25.6-27.8-27.9-39.4c-1.7-8.9-3-18.3-11.6-19.3c-1.4-0.2-7.4,4.7-10.2,5.2
				c-2.7,0.4-7.5,0.6-10.2,0.1c-4.2-0.9-4.8-4.2-9.2-5.2c-5.9-1.4-12.9,0.5-19,0c-7.8-0.7-18.7-5.1-26.5-2.6
				c-12.7,4.1-15.8,33.6-28.4,6.5c-5.9,2.4-24.5,13.6-25.7,19.3c-2.6,12.4,17.6,16.6,14.3,34.1c9.4,0.6,6.4,13.2,6,20.5
				c-12.1,0.5-21.5,1.8-25.4-10.1c-1.1-3.4,1.2-8.1,0-11.5c-2.3-6.5-2.2-3.2-6.4-8c-6.1-6.7-15.8-18.1-25.6-16.3
				c-9.4,1.7-8.1,7.8-10.4,16.5c-13,2.8-14.3-16.5-21.6-23.5C98,74.8,92.4,85.9,80.9,93.7c-4.8,3.2-9.7,7.3-15,8.9
				c-5.3,1.7-13.2-0.4-17.9,1.6c-14.9,6.4-4,23.7-7.5,34.7c-4.2,13.1-19.7,17.2-21.9,31.9c-1.4,8.8-2.5,18.4-2.5,27.9l8.1,0.7
				C27.4,196.8,36,201.9,37.7,205.3z"/>
		</g>
	</g>
</g>
</svg>
