<svg id="Layer_1" data-name="Layer 1" xmlns="http://www.w3.org/2000/svg" viewBox="0 0 189.09 197.81"><defs><style>.cls-1{fill:#fff;}.cls-2{fill:#e0b22d;}</style></defs><polygon class="cls-1" points="0 57.01 58.72 103.3 166.73 51.86 106.37 6.54 0 57.01"/><polygon class="cls-1" points="23.65 130.94 25.68 147.88 42.72 143.59 23.65 130.94"/><polygon class="cls-1" points="123.09 129.23 152.23 112.51 168.09 129.87 155.66 125.16 123.09 129.23"/><polygon class="cls-1" points="174.51 98.85 154.16 111.3 162.6 121.31 174.88 114.44 174.51 98.85"/><polygon class="cls-1" points="7.71 66.86 7.63 80.25 47.33 101.66 7.71 66.86"/><path class="cls-1" d="M126.77,153.38l-13.7,6.88L61.48,139.18l-.06,8.53c10.83,6.27,58,35.1,65.35,39.6Z" transform="translate(-53.91 -51.19)"/><polygon class="cls-1" points="72.87 170.51 72.87 143.14 7.46 105.62 7.29 131.16 22.68 140.39 20.14 126.73 49.29 144.16 34.59 147.54 72.87 170.51"/><path class="cls-1" d="M176.06,175.06l52.19-31.68-1.32-39.75-69.3-52.44L125.49,71.76l35.14-16.28,64.73,48.43-96.87,48.62v35l50.15-27.33-50.15,34.57v27L204.92,179l-30.57,3.8Zm-36.57-3.43-10.86-3.71,62.29-33.72Z" transform="translate(-53.91 -51.19)"/><path class="cls-2" d="M208.07,162.49" transform="translate(-53.91 -51.19)"/><polygon class="cls-2" points="176.16 116.73 164.41 123.31 173.66 133.52 154.72 128.73 74.01 173.88 36.7 151.5 28.36 159.23 93.73 197.81 189.09 139.94 176.16 116.73"/></svg>