<?xml version="1.0" encoding="utf-8"?>
<!-- Generator: Adobe Illustrator 25.2.0, SVG Export Plug-In . SVG Version: 6.00 Build 0)  -->
<svg version="1.1" id="Layer_1" xmlns="http://www.w3.org/2000/svg" xmlns:xlink="http://www.w3.org/1999/xlink" x="0px" y="0px"
	 viewBox="0 0 300 300" style="enable-background:new 0 0 300 300;" xml:space="preserve">
<style type="text/css">
	.st0{fill:#F3F3F3;}
	.st1{fill:#DFB22B;}
</style>
<g>
	<path class="st0" d="M126,30c-3.2-3.8-7.9-6-12.8-6.4c-20.5-1.6-22.5,10.1-22.5,10.1V48c18.3,10.1,38.2,0,38.2,0c0-2.5,0-5,0-7.5
		c0-1.6,0-3.1,0-4.7C128.7,33.8,127.3,31.6,126,30z M110.1,34c-6.9,0-12.5-2-12.5-4.5c0-2.5,5.6-4.5,12.5-4.5s12.5,2,12.5,4.5
		C122.5,32,117,34,110.1,34z"/>
	<g>
		<path class="st0" d="M108,116.4c15.9,0,30.2-3.6,39.9-9.3V82.7c0.3-16.3-16-31.3-16.3-31.6c-22.8,8.6-38.6,2.7-43.3,0.5
			c-0.2-0.1-0.3-0.1-0.5-0.2c-0.1-0.1-0.2-0.1-0.3-0.2c-0.4,0.2-0.8,0.5-1.1,0.9c-3.7,3.7-7,7.9-9.7,12.4
			c-2.9,4.8-5.1,10.2-5.5,15.9c-0.1,0.8-0.1,1.5-0.1,2.3v26.1C80.7,113.5,93.7,116.4,108,116.4z"/>
		<path class="st0" d="M95.7,141.8l52.2-12v-16.4c-9.7,5.7-23.9,9.2-39.9,9.2c-14.3,0-27.3-2.9-36.8-7.6v41.3c2,1,4.2,1.9,6.5,2.8
			C80.3,154,86.1,144.9,95.7,141.8z"/>
		<path class="st0" d="M74.4,163.8c-1.3-0.6-2.9-1.3-3.2-0.7v8.1c0,1.6,0,3.1,0,4.7V196c0.2,0.8,0.4,1.6,0.7,2.4
			c0.4,1.1,0.9,2.2,1.4,3.3c2,3.8,5.4,9.1,10.6,13.1c0.2,0.1,0.3,0.3,0.5,0.4c0.3,0.2,0.7,0.5,1,0.7c4.3,2.7,9.3,4.3,14.4,4.6
			c0,0,0.7,0,0.8,0C100.6,220.5,69.1,216.6,74.4,163.8z"/>
	</g>
	<path class="st0" d="M268.8,163.2c3-3.9,4.2-9,3.5-13.9c-2.8-20.4-14.6-19.9-14.6-19.9l-13.9,3c-6.1,20,8,37.3,8,37.3
		c2.4-0.5,4.9-1,7.3-1.6c1.5-0.3,3.1-0.6,4.6-1C265.7,166.7,267.5,164.9,268.8,163.2z M261.6,148.5c-1.4-6.7-0.6-12.6,1.8-13.1
		c2.4-0.5,5.6,4.5,7,11.2c1.4,6.7,0.6,12.6-1.8,13.1C266.2,160.3,263,155.3,261.6,148.5z"/>
	<g>
		<path class="st0" d="M151.2,210.9l40.7-8.8c-7.6-8.3-14.1-21.5-17.4-37c-3-14-2.9-27.3-0.3-37.6l-40.4,8.7
			c-2.7,10.3-2.9,23.8,0.2,38C137.3,189.6,143.7,202.7,151.2,210.9z"/>
		<path class="st0" d="M180.5,163.9c3.4,15.6,9.9,28.7,17.4,37l23.9-5.1c16-3.1,27.2-22.2,27.4-22.6c-13.2-20.4-10.8-37.2-9.6-42.2
			c0-0.2,0.1-0.4,0.1-0.5c0-0.1,0.1-0.2,0.1-0.3c-0.3-0.4-0.7-0.6-1.1-0.9c-4.4-2.8-9.2-5.2-14.1-6.9c-5.3-1.8-11.1-2.8-16.7-2
			c-0.7,0.1-1.5,0.2-2.2,0.4l-25.5,5.5C177.6,136.5,177.5,149.8,180.5,163.9z"/>
		<path class="st0" d="M128,175.5c-3.1-14.2-2.9-27.6-0.2-38l-32.9,7.1c0,0-21.4,10.6-17.8,33.2l4.1,18.9
			c6.1,22,29.9,22.9,29.9,22.9l34.1-7.3C137.7,203.9,131.3,190.9,128,175.5z"/>
	</g>
	<path class="st1" d="M101.9,222.7c-7.5,1.5-15.4-2.2-21.1-6c1.7,16.8,23.3,30.1,49.9,30.1c27.7,0,50.1-14.4,50.1-32.1
		c0-2.6-0.5-5-1.4-7.4L101.9,222.7z"/>
</g>
</svg>
